# xmcd
#
# Track frame offsets:
#	150
#	45530
#	86315
#	128912
#	153384
#	195528
#
# Disc length: 3745 seconds
#
# Revision: 1
# Processed by: cddbd v1.5.2PL0 Copyright (c) Steve Scherf et al.
# Submitted via: audiograbber 1.83.01
#
DISCID=410e9f06
DTITLE=Grateful Dead - 90-07-19 Deer Creek Music Centre, Noblesville IN
DYEAR=1900
DGENRE=
TTITLE0=Victim Or The Crime
TTITLE1=Foolish Heart
TTITLE2=Playing In The Band
TTITLE3=China Doll
TTITLE4=Uncle John's Band
TTITLE5=Drums
EXTD=
EXTT0=
EXTT1=
EXTT2=
EXTT3=
EXTT4=
EXTT5=
PLAYORDER=
